<svg id="visual" viewBox="0 0 1870 540" width="1870" height="540" xmlns="http://www.w3.org/2000/svg" xmlns:xlink="http://www.w3.org/1999/xlink" version="1.1"><path d="M0 352L44.5 365.8C89 379.7 178 407.3 267 418.5C356 429.7 445 424.3 534 414C623 403.7 712 388.3 801.2 380.3C890.3 372.3 979.7 371.7 1068.8 373.8C1158 376 1247 381 1336 386.2C1425 391.3 1514 396.7 1603 395.5C1692 394.3 1781 386.7 1825.5 382.8L1870 379L1870 541L1825.5 541C1781 541 1692 541 1603 541C1514 541 1425 541 1336 541C1247 541 1158 541 1068.8 541C979.7 541 890.3 541 801.2 541C712 541 623 541 534 541C445 541 356 541 267 541C178 541 89 541 44.5 541L0 541Z" fill="#e9e992" stroke-linecap="round" stroke-linejoin="miter"></path></svg>